<?xml version="1.0" standalone="no"?>
<!DOCTYPE svg PUBLIC "-//W3C//DTD SVG 1.1//EN" "http://www.w3.org/Graphics/SVG/1.1/DTD/svg11.dtd" >
<svg xmlns="http://www.w3.org/2000/svg">
<metadata>
Created by FontForge 20120731 at Sun Mar 12 18:17:12 2017
 By admin
</metadata>
<defs>
<font id="iconfont" horiz-adv-x="1024" >
  <font-face 
    font-family="iconfont"
    font-weight="500"
    font-stretch="normal"
    units-per-em="1024"
    panose-1="2 0 6 3 0 0 0 0 0 0"
    ascent="896"
    descent="-128"
    x-height="792"
    bbox="2 -148 1148 855"
    underline-thickness="0"
    underline-position="0"
    unicode-range="U+0078-E8D3"
  />
<missing-glyph 
 />
    <glyph glyph-name=".notdef" 
 />
    <glyph glyph-name=".notdef" 
 />
    <glyph glyph-name=".null" horiz-adv-x="0" 
 />
    <glyph glyph-name="nonmarkingreturn" horiz-adv-x="341" 
 />
    <glyph glyph-name="x" unicode="x" horiz-adv-x="1001" 
d="M281 543q-27 -1 -53 -1h-83q-18 0 -36.5 -6t-32.5 -18.5t-23 -32t-9 -45.5v-76h912v41q0 16 -0.5 30t-0.5 18q0 13 -5 29t-17 29.5t-31.5 22.5t-49.5 9h-133v-97h-438v97zM955 310v-52q0 -23 0.5 -52t0.5 -58t-10.5 -47.5t-26 -30t-33 -16t-31.5 -4.5q-14 -1 -29.5 -0.5
t-29.5 0.5h-32l-45 128h-439l-44 -128h-29h-34q-20 0 -45 1q-25 0 -41 9.5t-25.5 23t-13.5 29.5t-4 30v167h911zM163 247q-12 0 -21 -8.5t-9 -21.5t9 -21.5t21 -8.5q13 0 22 8.5t9 21.5t-9 21.5t-22 8.5zM316 123q-8 -26 -14 -48q-5 -19 -10.5 -37t-7.5 -25t-3 -15t1 -14.5
t9.5 -10.5t21.5 -4h37h67h81h80h64h36q23 0 34 12t2 38q-5 13 -9.5 30.5t-9.5 34.5q-5 19 -11 39h-368zM336 498v228q0 11 2.5 23t10 21.5t20.5 15.5t34 6h188q31 0 51.5 -14.5t20.5 -52.5v-227h-327z" />
    <glyph glyph-name="about" unicode="&#xe600;" horiz-adv-x="1000" 
d="M515.5 698q77.5 0 148.5 -30q68 -29 121 -82q53 -52 82 -121q30 -71 30 -148.5t-30 -148.5q-29 -69 -82 -122q-53 -52 -121 -81q-71 -30 -148.5 -30t-148.5 30q-69 28 -122 81q-52 53 -82 122q-30 71 -30 148.5t30 148.5q29 68 82 121t122 82q71 30 148.5 30zM515 742
q-115 0 -213.5 -57t-155.5 -155t-57 -213.5t57 -213.5t155.5 -155t214 -57t213.5 57t155 155t57 213.5t-57 213.5t-155 155t-214 57v0zM431 75v24h5q27 0 36.5 7.5t9.5 27.5v214q0 18 -8.5 25.5t-29.5 7.5q-2 0 -5 -1h-7v21q29 3 54 10q25 6 47 15h17v-290q0 -23 8 -30
t32 -7h9v-24h-168zM514 487q-20 0 -32 12.5t-12 34.5t11.5 34.5t32.5 12.5q20 0 31 -12.5t11 -34.5t-11 -34.5t-31 -12.5zM484 79z" />
    <glyph glyph-name="thumbup" unicode="&#xe606;" horiz-adv-x="1000" 
d="M469 737q16 19 43 17q30 -3 59 -29q37 -35 32 -92q-3 -37 -22 -83q-4 -10 -16 -35.5t-17 -40.5q-9 -29 -3 -45q6 -15 32 -13q18 3 75.5 12t88.5 12q55 3 76 -4q21 -6 37.5 -22t21.5 -37q1 -19 2 -20t-1.5 -19.5t-2.5 -20.5l7 -5q19 -13 30 -35t8 -44q-2 -32 -27 -59
q16 -15 23.5 -36.5t2.5 -42.5q-8 -37 -48 -62q13 -35 5 -68q-8 -35 -51 -54q-44 -19 -126 -26q-65 -5 -160 -2q-68 3 -110 9q-65 9 -131 35q-62 25 -102 30q-30 4 -87 5q1 29 1 42q74 -1 122 -12q17 -3 34.5 -9t40 -14.5t33.5 -12.5q62 -22 154 -29q79 -6 161 -3
q91 4 139 20q36 13 42 31q6 28 -10 56q-8 13 2 25l6 4t7.5 4.5t7.5 3.5q17 11 26 26q6 12 3 26t-13 22q-3 4 -10.5 8.5t-10.5 7.5q-6 5 -6.5 13.5t5.5 14.5q2 3 9.5 8t10.5 8q21 22 15 49q-6 23 -33 34q-9 4 -12 13q-2 5 1 28q3 22 3 35q0 17 -17 29q-16 10 -39 10
q-25 0 -51 -3t-65 -9.5t-50 -7.5q-3 -1 -13.5 -2.5t-15 -2t-13 -1t-15 0.5t-12.5 3q-16 4 -27 16t-15 28q-9 41 20 101q31 66 36 96q7 30 -3 55t-38 36q-10 4 -16 1q-4 -2 -7 -12q-2 -7 -3.5 -20t-2.5 -18q-8 -39 -21 -67q-19 -43 -55 -80q-16 -16 -50.5 -45t-38.5 -32
q-28 -24 -41 -50q-4 -8 -11.5 -23.5t-12.5 -25t-13.5 -21.5t-18.5 -21q-39 -34 -118 -34q-1 40 -1 41q56 1 84 19q20 13 39 53q23 46 35 61q17 21 55.5 53t44.5 38q52 44 71 103q9 25 15 65q3 28 17 42z" />
    <glyph glyph-name="feedback" unicode="&#xe601;" 
d="M819 108v140v139v38q0 7 -5.5 12.5t-12.5 5.5t-12.5 -5.5t-5.5 -12.5v-74v-151v-119v-12v-3v-3v-1v-2q-1 -2 -2 -5q0 -1 -2 -4q0 -1 -2 -3v-1q-2 -1 -3 -3h-1l-2 -2q-2 -1 -5 -3v0q-1 0 -3 -0.5t-4 -1.5h-5h-4h-81h-143h-153h-108h-20v0v0h-4v0v0q-3 0 -6 1l-1 1h-2
q-2 2 -5 4v0q-1 1 -3 2l-1.5 1.5t-1.5 2.5q-1 1 -2 3q-1 1 -2 3v0q-1 2 -1 6q0 1 -1 1v2v2v1v64v137v155v119v29v5v4q1 1 1.5 2.5t0.5 4.5l1 1q1 1 2 4l1 2v0q2 2 5 4l0.5 0.5l1.5 1.5l4 2q1 1 5 2l2 0.5t3 0.5h3h2h12h49h148h127h22q7 0 12.5 5t5.5 12.5t-5.5 12.5t-12.5 5
h-74h-151h-120q-25 0 -34 -2q-34 -10 -44 -45q-2 -8 -2 -20v-74v-141v-153v-113v-24q0 -24 14.5 -42.5t36.5 -22.5q8 -2 26 -2h39h131h155h127h36h8q15 0 30 7q13 6 25 22q8 11 11 31v10v37v0zM226 43v0v0zM851 650q-3 4 -20 21q-9 9 -18 13q-17 8 -37 4q-16 -2 -35 -22
q-13 -12 -25 -24q0 -1 -1 -2t-2 -1q-5 -5 -5 -12.5t5 -12.5l78 -78q0 -1 1 -1q5 -5 12.5 -5t12.5 5q3 2 14 13.5t18 17.5q15 15 18 32q6 30 -16 52zM802 649v0v0zM831 600q-1 -1 -2 -3l-1 -2q-1 0 -2 -1q-2 -3 -4 -4q0 -1 -17 -18l-54 54q0 1 2.5 3.5t4.5 3.5q9 9 11 12l3 2
q0 1 1 1q0 1 2 2q1 0 2 1l2 2v0q3 0 6 1v0h4h1h2.5t2.5 -1l2 -1l4 -2h1q0 -1 2 -2v-1l22 -22v0l1 -1l1 -1l2 -2q0 -1 1 -2q0 -1 1 -4v-2q1 -1 1 -4l-1 -3v-3zM498 424l-57 -58q-3 -2 -9 -19q-2 -4 -12 -29q-2 -6 -11.5 -31t-14.5 -38l-8 -20q-3 -9 5 -17t17 -4q56 21 110 42
q3 1 9.5 3.5t9.5 3.5v1q4 1 8 4q28 29 57 58q54 54 108 107l30.5 30.5t26.5 27.5q5 5 5 12.5t-5 12.5l-78 78l-1 1q-5 5 -12.5 5t-12.5 -5l-27 -27t-30 -31q-54 -54 -108 -107zM460 322q20 -21 40 -41q-1 0 -66 -25zM676 551q8 -9 26 -26t28 -28l-22 -22l-23 -23
q-74 -71 -108 -107l-45 -45q-27 26 -54 53q45 45 45 46l108 107q8 8 23 24t22 21z" />
    <glyph glyph-name="about1" unicode="&#xe61f;" 
d="M521.5 848q-114.5 0 -212 -56.5t-154 -154t-56.5 -212t56.5 -212t154 -154t212 -56.5t212 56.5t154 154t56.5 212t-56.5 212t-154 154t-212 56.5zM574 190q0 -22 -15.5 -37.5t-37.5 -15.5t-37.5 15.5t-15.5 37.5v4v314v0v0q0 22 15.5 37.5t37.5 15.5t38 -15.5t16 -37.5
q0 -3 -1 -6v-308v-4zM521.5 604q-22.5 0 -38.5 16t-16 39t16 39t38.5 16t38.5 -16t16 -39t-16 -39t-38.5 -16z" />
    <glyph glyph-name="emotion" unicode="&#xe607;" 
d="M355 542q-29 0 -49 -20t-20 -48.5t20 -49t49 -20.5t49 20.5t20 49t-20 48.5t-49 20zM355 438q-15 0 -25.5 10.5t-10.5 25.5t10.5 26t25.5 11t26 -11t11 -26t-11 -25.5t-26 -10.5zM615 439h119v34h-119v-34zM513 195q-45 0 -79 30l-21 -18q44 -45 103 -45q62 0 106.5 47
t44.5 110h-32q-4 -56 -40 -90t-82 -34zM511 801q-113 0 -208.5 -55.5t-151 -151t-55.5 -208.5t55.5 -208.5t151 -151t208.5 -55.5t208.5 55.5t151 151t55.5 208.5t-55.5 208.5t-151 151t-208.5 55.5zM511.5 8q-102.5 0 -189 50.5t-137 137.5t-50.5 189.5t50.5 189t137 137
t189 50.5t189.5 -50.5t137.5 -137t50.5 -189t-50.5 -189.5t-137.5 -137.5t-189.5 -50.5z" />
    <glyph glyph-name="close" unicode="&#xe608;" 
d="M788 537l-30 23l-244 -244l-247 247l-26 -29l245 -246l-250 -250l31 -23l246 247l249 -250l26 30l-247 247z" />
    <glyph glyph-name="pic" unicode="&#xe609;" 
d="M899 716h-774q-15 0 -26 -11t-11 -26v-553q0 -15 11 -26t26 -11h774q16 0 26.5 11t10.5 26v553q0 15 -10.5 26t-26.5 11zM899 144q0 -7 -5 -12.5t-13 -5.5h-737q-8 0 -13.5 5.5t-5.5 12.5v44q55 65 102 65q19 0 84.5 -16.5t88.5 -16.5q22 0 51 19t57 46l56 54t56 46
t49 19q31 0 69 -23.5t72.5 -60.5t54 -61.5t34.5 -46.5v-68zM899 262q-9 16 -21.5 32.5t-37.5 44.5t-51 48.5t-61 36t-68 15.5q-25 0 -64.5 -28.5t-74 -63t-73 -63.5t-62.5 -29q-22 0 -80.5 18.5t-77.5 18.5q-50 0 -103 -61v429q0 8 5.5 13.5t13.5 5.5h737q8 0 13 -5.5
t5 -13.5v-398zM291 587q-31 0 -52.5 -21.5t-21.5 -52t21.5 -52t52.5 -21.5t52.5 21.5t21.5 52t-21.5 52t-52.5 21.5zM291 458q-23 0 -39 16.5t-16 39t16 38.5t39 16t39 -16t16 -38.5t-16 -39t-39 -16.5z" />
    <glyph glyph-name="ios7reload" unicode="&#xe60a;" 
d="M512 684q104 0 192.5 -51t140 -139.5t51.5 -192.5l110 105l18 -18l-141 -136l-133 136l18 18l102 -105q0 97 -48 179.5t-130.5 130t-179.5 47.5t-179.5 -48t-130.5 -130.5t-48 -179.5t48 -179.5t130.5 -130.5t179.5 -48q116 0 209.5 67.5t129.5 175.5l25 -7
q-39 -116 -139 -189t-225 -73q-159 0 -271.5 112.5t-112.5 271.5t112.5 271.5t271.5 112.5z" />
    <glyph glyph-name="ios7redooutline" unicode="&#xe60c;" 
d="M128 12h21l38 62q74 119 152 154q42 19 80 28.5t93 11.5v-160l384 256l-384 256v-161q-183 -8 -287 -112q-99 -100 -97 -265v-6v-64zM544 428v129l296 -193l-296 -194v130q-140 0 -227.5 -46t-156.5 -165q-1 7 -0.5 19.5t6.5 47.5t18 67t40 71t67.5 67t105 47.5
t147.5 19.5z" />
    <glyph glyph-name="ios7chatbubbleoutline" unicode="&#xe60d;" 
d="M512 588q95 0 176.5 -37t128.5 -101t47 -139q0 -111 -99 -187q-101 -79 -251 -79q-84 0 -139 19q-1 0 -2.5 0.5l-1.5 0.5h-2q-14 5 -29 5q-17 0 -33 -6v0h-1q-13 -4 -22 -8v0l-79 -35q28 88 28 95q0 22 -13 41q-2 3 -3 4q-3 4 -4 5q-53 67 -53 146q0 75 47 138.5
t128.5 100.5t176.5 37zM512 620q-104 0 -192.5 -41.5t-140 -112.5t-51.5 -155q0 -90 61 -166q2 -3 7 -10q-2 3 -2 4v0v0v0q7 -11 7 -23q0 -2 -36 -116v0v0q-2 -6 2.5 -12t12.5 -8h5q4 0 8 1l3 1l101 44q1 1 10.5 4.5l9.5 3.5h1h-1q10 4 22 4q11 0 21 -3v-1h2t1 -1
q61 -20 151 -20q104 0 192 38.5t139 107.5t51 152.5t-51.5 154.5t-140 112.5t-192.5 41.5v0z" />
    <glyph glyph-name="ios7heartoutline" unicode="&#xe60e;" 
d="M682 615q76 0 129.5 -54t53.5 -130q0 -79 -56 -134l-297 -299l-302 305q-51 54 -51 128q0 76 53.5 130t130.5 54q56 0 102 -31.5t67 -81.5q21 50 67 81.5t103 31.5zM682 646q-51 0 -95.5 -22t-74.5 -62q-30 40 -74.5 62t-95.5 22q-88 0 -151 -63t-63 -152q0 -87 60 -150
l302 -305l22 -22l22 22l296 300q66 63 66 155q0 89 -63 152t-151 63v0z" />
    <glyph glyph-name="ios7person" unicode="&#xe605;" 
d="M727 84q-16 6 -50 11.5t-37 6.5q-30 6 -40 18q-3 4 -3.5 24.5t0.5 38.5l1 19q12 19 18 36q3 7 6.5 23t5.5 28l2 12q2 0 4.5 0.5t7 6.5t7.5 17q1 7 6.5 26t5.5 30q-1 19 -12 19v0q10 27 12 85q1 54 -39 94.5t-110 40.5t-110 -40t-39 -95q1 -26 4 -47t5 -30l3 -8v0
q-11 0 -12 -19q0 -11 5.5 -29t6.5 -27q3 -10 7.5 -16t7.5 -7l4 -1q7 -46 14 -63q3 -7 7.5 -16l7.5 -15l3 -5q4 -74 -2 -82q-10 -11 -40 -18q-2 0 -36.5 -6t-50.5 -12q-105 -37 -105 -104h320h320q0 67 -105 104z" />
    <glyph glyph-name="ios7personoutline" unicode="&#xe61c;" 
d="M405 409v0v0zM727 84q-16 6 -50 11.5t-37 6.5q-30 6 -40 18q-3 4 -3.5 24.5t0.5 38.5l1 19q12 19 18 36q3 7 6.5 23t5.5 28l2 12q2 0 4.5 0.5t7 6.5t7.5 17q1 7 6.5 26t5.5 30q-1 19 -12 19v0q10 27 12 85q1 54 -39 94.5t-110 40.5t-110 -40t-39 -95q1 -26 4 -47t5 -30
l3 -8v0q-11 0 -12 -19q0 -11 5.5 -29t6.5 -27q3 -10 7.5 -16t7.5 -7l4 -1q7 -46 14 -63q3 -7 7.5 -16l7.5 -15l3 -5q4 -74 -2 -82q-10 -11 -40 -18q-2 0 -36.5 -6t-50.5 -12q-105 -37 -105 -104h320h320q0 67 -105 104zM512 12h-275q5 7 17 15q22 16 54 27q15 6 51 11
q23 4 32 6q41 9 57 29q12 14 11 64v12v10.5t-0.5 8.5t-0.5 6.5v2.5v8l-5 7q-10 16 -16 31q-5 14 -12 56v0l-1 7q-1 5 -9.5 9t-9.5 7q-4 19 -8 37q-2 12 -1 16t4.5 8.5t4.5 7.5v12v0q-9 27 -10 75q-1 41 28 70q32 33 89 33t89 -33q29 -29 28 -70q-1 -52 -10 -75v0v0
q-1 -5 -1 -11q1 -2 6.5 -11t2.5 -22q-4 -18 -9 -37q0 -3 -8.5 -7t-9.5 -9l-1 -7v0q-7 -42 -12 -56q-5 -13 -16 -31l-5 -7v-8l-0.5 -2.5t-0.5 -6.5v-8.5t-0.5 -10.5t-0.5 -12q0 -50 12 -64q16 -20 57 -29q8 -2 32 -6q36 -5 51 -11q33 -11 54 -27q12 -9 16 -15h-274v0z" />
    <glyph glyph-name="ios7gear" unicode="&#xe60f;" 
d="M849 379h-30q-19 0 -32.5 14t-13.5 33t15 33l20 19q14 14 14 34.5t-14 35.5l-45 44q-14 14 -35 14t-35 -14l-19 -19q-14 -15 -34 -15q-19 0 -33 13.5t-14 31.5v31q0 20 -14.5 35t-34.5 15h-61q-20 0 -34 -15t-14 -35v-31q0 -18 -14 -31.5t-33 -13.5q-20 0 -34 15l-19 19
q-14 14 -35 14t-35 -14l-45 -44q-14 -14 -14 -34.5t14 -35.5l19 -18q15 -14 15 -34q0 -19 -13.5 -33t-31.5 -14h-31q-20 0 -35 -14t-15 -35v-30v-30q0 -21 15 -35t35 -14h31q18 0 31.5 -14t13.5 -33q0 -20 -15 -34l-19 -18q-14 -15 -14 -35.5t14 -34.5l45 -44q13 -14 35 -14
q20 0 35 14l19 19q13 15 33 15q19 0 33 -13.5t14 -32.5v-30q0 -20 14.5 -35t34.5 -15h61q20 0 34.5 14.5t14.5 35.5v30q0 19 14 32.5t33 13.5t34 -16l19 -18q14 -14 34.5 -14t35.5 14l44 44q15 14 15 34.5t-15 35.5l-19 19q-15 13 -15 33q0 19 13.5 33t31.5 14h31
q20 0 33 14t13 34v31v30q1 21 -12.5 35t-33.5 14zM674 300v0q0 -66 -47 -113t-113.5 -47t-113 47t-46.5 113v0v0q0 66 46.5 113t113 47t113.5 -47t47 -113v0z" />
    <glyph glyph-name="ios7gearoutline" unicode="&#xe610;" 
d="M513.5 492q-79.5 0 -135.5 -56t-56 -136q0 -79 56 -136q56 -56 135.5 -56t136 56t56.5 136q0 79 -57 136q-56 56 -135.5 56zM513.5 140q-66.5 0 -113 47t-46.5 113t46.5 113t113 47t113.5 -47t47 -113t-47 -113t-113.5 -47zM849 380h-30q-19 0 -32.5 13.5t-13.5 32.5
q0 20 15 33l20 19q14 15 14 35.5t-14 34.5l-45 44q-14 14 -35 14t-35 -14l-19 -18q-14 -16 -34 -16q-19 0 -33.5 13.5t-14.5 32.5v30q0 20 -14 35t-34 15h-60q-21 0 -35.5 -15t-14.5 -35v-31q0 -18 -14 -31.5t-33 -13.5t-33 15l-19 19q-14 14 -35 14t-35 -14l-45 -44
q-14 -14 -14 -34.5t14 -35.5l19 -18q15 -14 15 -34q0 -19 -13.5 -32.5t-31.5 -13.5h-31q-20 0 -35 -14.5t-15 -35.5v-30v-30q0 -21 15 -35.5t35 -14.5h31q18 0 31.5 -13.5t13.5 -32.5q0 -20 -15 -34l-19 -18q-14 -15 -14 -35.5t14 -34.5l45 -44q13 -14 35 -14q20 0 35 14
l19 19q13 15 33 15q19 0 33 -13.5t14 -32.5v-30q0 -21 14.5 -35.5t34.5 -14.5h61q20 0 35 14.5t15 35.5v30q0 19 13.5 32.5t32.5 13.5q20 0 34 -16l19 -19q14 -14 35 -14t35 14l45 45q14 14 14 34.5t-14 35.5l-20 19q-15 13 -15 33q0 19 13.5 33t32.5 14h30q20 0 33.5 14
t13.5 34v31v30q0 21 -13.5 35.5t-33.5 14.5zM864 300v-30q0 -16 -15 -16h-30q-32 0 -55 -24q-23 -23 -23 -56t25 -56l19 -19q5 -5 5 -12t-5 -12l-44 -45q-5 -5 -13 -5t-12 5l-19 18q-24 26 -57 26q-31 0 -54.5 -22.5t-23.5 -55.5v-30q0 -7 -5.5 -12.5t-12.5 -5.5h-60
q-7 0 -12.5 5t-5.5 13v30q0 32 -23 55q-24 23 -55 23q-34 0 -57 -25l-18 -19q-5 -5 -13 -5t-12 5v0v0l-45 45q-5 5 -5 12t5 12l18 18q26 24 26 57q0 32 -23 55q-22 23 -55 23h-31q-7 0 -12.5 5.5t-5.5 11.5v31v30q0 7 5.5 12.5t12.5 5.5h31q32 0 55 23q22 23 22 55
q0 34 -25 57l-18 18q-5 5 -5 12t5 12l44 45q5 4 13 4t12 -4v0v0l19 -19q23 -25 56 -25q32 0 55 22q24 23 24 55v31q0 7 5 12.5t12 5.5h61q7 0 11.5 -5.5t4.5 -12.5v-31q0 -31 24 -55q23 -22 56 -22t57 25l18 18q5 5 12.5 5t12.5 -4l45 -45q5 -5 5 -12t-5 -12l-19 -19
q-25 -23 -25 -56q0 -32 23 -55q22 -23 55 -23h30q15 0 15 -18v-30z" />
    <glyph glyph-name="ios7cameraoutline" unicode="&#xe611;" 
d="M880 624h-141q-3 3 -10 11q-54 61 -74.5 79.5t-39.5 18.5h-201q-20 0 -40.5 -19t-83.5 -90h-31v36h-77v-36h-31q-30 0 -53 -20.5t-23 -49.5v-401q0 -29 23 -52t53 -23h729q29 0 49 22.5t20 52.5v401q0 30 -20 50t-49 20zM912 153q0 -16 -9.5 -27.5t-22.5 -11.5h-729
q-15 0 -27 12.5t-12 26.5v401q0 14 11.5 23.5t27.5 9.5h155l11 8q4 5 12.5 16t12.5 15q42 48 57 61q5 5 8.5 7t4.5 2l1 1h202q4 0 15 -11q6 -5 14.5 -14.5t22.5 -25.5t24 -27.5t21 -23.5l11 -8h157q14 0 23.5 -9t9.5 -24zM512 557q-80 0 -137.5 -57.5t-57.5 -137.5
t57.5 -137t137.5 -57t137.5 57t57.5 137t-57.5 137.5t-137.5 57.5zM512 204q-66 0 -112 46.5t-46 112t46 111.5t112 46t112 -46t46 -111.5t-46 -112t-112 -46.5zM730 551h39v-39h-39v39zM439 362q0 -30 21.5 -51.5t51.5 -21.5t51.5 21.5t21.5 51.5t-21.5 51.5t-51.5 21.5
t-51.5 -21.5t-21.5 -51.5z" />
    <glyph glyph-name="ios7chatboxesoutline" unicode="&#xe612;" 
d="M128 684h512v-192h32v224h-576v-448h224v32h-192v384zM352 460v-448h325l128 -128h27v128h96v448h-576zM896 44h-96v-109l-110 109h-306v384h512v-384z" />
    <glyph glyph-name="ios7homeoutline" unicode="&#xe613;" 
d="M512 588l-320 -256v-416h224v256h192v-256h224v416zM800 -52h-160v256h-256v-256h-160v369l288 230l288 -230v-369zM512 684l-192 -154v90h-128v-192l-64 -51v-41l384 307l384 -307v41zM288 505l-64 -51v134h64v-83z" />
    <glyph glyph-name="ios7chatbubble" unicode="&#xe614;" 
d="M512 620q-104 0 -192.5 -41.5t-140 -112.5t-51.5 -155q0 -90 61 -166q2 -3 7 -10q-2 3 -2 4v0v0v0q7 -11 7 -23q0 -2 -36 -116v0v0q-2 -6 2.5 -12t12.5 -8h5q4 0 8 1l3 1l101 44q1 1 10.5 4.5l9.5 3.5h1h-1q10 4 22 4q11 0 21 -3v-1h2t1 -1q61 -20 151 -20
q104 0 192 38.5t139 107.5t51 152.5t-51.5 154.5t-140 112.5t-192.5 41.5v0z" />
    <glyph glyph-name="ios7worldoutline" unicode="&#xe615;" 
d="M512 716v0h-1v0q-113 0 -208.5 -56t-151 -151.5t-55.5 -208.5t55.5 -208.5t151 -151.5t208.5 -56v0h1v0q172 0 294 122t122 294t-122 294t-294 122zM529 467q65 2 128 17q20 -78 21 -168h-149v151zM529 500v180q34 -9 65.5 -52.5t53.5 -111.5q-58 -14 -119 -16zM495 680
v-180q-61 2 -120 16q22 69 54 112.5t66 51.5zM495 467v-150h-150q1 90 21 167q64 -15 129 -17zM311 317h-181q5 127 86 226q57 -32 118 -50q-21 -81 -23 -176zM311 283q2 -94 23 -176q-62 -19 -118 -50q-81 99 -86 226h181zM345 283h150v-150q-65 -2 -129 -17
q-20 77 -21 167zM495 100v-181q-34 9 -66 52.5t-54 112.5q58 14 120 16zM529 -80v180q60 -2 119 -16q-21 -68 -53 -111.5t-66 -52.5zM529 133v150h149q-1 -89 -21 -167q-64 15 -128 17zM712 283h182q-5 -126 -86 -226q-57 32 -119 50q21 82 23 176zM712 317q-2 93 -23 176
q62 18 119 50q81 -99 86 -227h-182v1zM785 568q-51 -27 -105 -43q-29 96 -79 147q106 -25 184 -104zM422 672q-49 -51 -79 -147q-54 17 -104 43q77 78 183 104zM239 32q49 26 104 43q30 -96 79 -147q-106 26 -183 104zM601 -72q49 51 79 147q54 -16 105 -43
q-77 -79 -184 -104z" />
    <glyph glyph-name="ios7arrowdown" unicode="&#xe616;" 
d="M793 492l39 -41l-320 -343l-320 343l39 41l281 -301z" />
    <glyph glyph-name="ios7home" unicode="&#xe602;" 
d="M512 588l-320 -256v-416h224v256h192v-256h224v416zM512 684l-192 -154v90h-128v-192l-64 -51v-41l384 307l384 -307v41z" />
    <glyph glyph-name="ios7more" unicode="&#xe61d;" 
d="M512 364q-27 0 -45.5 -18.5t-18.5 -45.5t18.5 -45.5t45.5 -18.5t45.5 18.5t18.5 45.5t-18.5 45.5t-45.5 18.5v0zM257 364q-27 0 -45.5 -18.5t-18.5 -45.5t18.5 -45.5t45 -18.5t45.5 18.5t19 45.5t-19 45.5t-45 18.5v0zM768 364q-27 0 -45.5 -18.5t-18.5 -45.5t18.5 -45.5
t45.5 -18.5t45.5 18.5t18.5 45.5t-18.5 45.5t-45.5 18.5v0z" />
    <glyph glyph-name="ios7arrowleft" unicode="&#xe617;" 
d="M704 581l-41 39l-343 -320l343 -320l41 39l-301 281z" />
    <glyph glyph-name="ios7arrowright" unicode="&#xe618;" 
d="M320 581l41 39l343 -320l-343 -320l-41 39l301 281z" />
    <glyph glyph-name="feedback2" unicode="&#xe658;" 
d="M961 373q-7 32 -40 32h-64q-8 0 -8 -8v-151q0 -30 -20 -49.5t-49 -19.5h-48h-179q-8 0 -8 -8q0 -2 1 -24q0 -44 43 -44h155q7 0 11 -5q13 -19 36 -53q3 -3 39 -54q-1 -1 0 -2h18v2v104q0 8 8 8h62q20 0 30 8.5t13 27.5v236zM401 207h365q19 0 33 14t14 34v398
q0 20 -14 34t-33 14h-591q-20 0 -33.5 -14t-13.5 -34v-398q0 -20 13.5 -34t33.5 -14h50l2 -215zM247 592h447q12 0 20 -8.5t8 -20t-8 -19.5t-20 -8h-447q-12 0 -20 8t-8 19.5t8 20t20 8.5zM247 496h447q12 0 20 -8t8 -19.5t-8 -19.5t-20 -8h-447q-12 0 -20 8t-8 19.5t8 19.5
t20 8zM247 400h447q12 0 20 -8t8 -19.5t-8 -19.5t-20 -8h-447q-12 0 -20 8t-8 19.5t8 19.5t20 8z" />
    <glyph glyph-name="like" unicode="&#xe8d3;" 
d="M882 561q-10 2 -25 4t-41 3t-44.5 2t-61.5 2t-66 1q7 33 7 93q0 73 -44.5 131t-94.5 58q-34 0 -59 -24.5t-25 -58.5q-1 -25 -5.5 -50t-15.5 -54.5t-34.5 -56t-57.5 -43.5q-18 -10 -29 -15l1 -1q-26 22 -56 22h-85q-34 0 -59 -24.5t-25 -59.5v-450q0 -35 25 -60t59 -25h85
q24 0 44 13.5t31 35.5h1q1 -1 3.5 -1.5t3.5 -0.5h0.5t0.5 -1q33 -8 114 -26q85 -20 168 -20h154q70 0 101 55q6 12 12 30q7 24 0 49q31 21 47 73q13 43 0 77q29 27 37 77q6 36 -11 67q23 25 24 61l1 6v14q0 30 -20.5 58t-59.5 39v0zM259 40q0 -12 -8.5 -20t-19.5 -8h-85
q-11 0 -19.5 8t-8.5 20v450q0 11 8.5 19.5t19.5 8.5h85q11 0 19.5 -8.5t8.5 -19.5v-450zM905 447q-2 -42 -56 -42h-56q-6 0 -10 -4t-4 -10t4 -10t10 -4h55q28 0 38 -17t7 -35q-10 -60 -61 -60h-67q-6 0 -10 -4t-4 -10t4 -10t10 -4h55q22 0 32.5 -10.5t8.5 -23t-4 -24.5
q-5 -16 -7.5 -21.5t-10 -15.5t-21.5 -14t-35 -4h-46q-6 0 -10 -4t-4 -10t4 -10t10 -4h44q20 0 26 -14t3 -26q-2 -4 -8 -20q-14 -24 -51 -24h-154q-77 0 -156 18q-110 25 -130 31q-3 0 -7 1.5t-10.5 7.5t-6.5 15v389q0 22 22 29q1 0 3 1t3 1q46 19 80 50t52.5 67.5t27 73.5
t9.5 75q0 11 8 19.5t20 8.5q25 0 53.5 -41t28.5 -92q0 -50 -4 -72.5t-22 -75.5q134 0 199.5 -1.5t76.5 -3t28 -6.5q34 -9 34 -43l-1 -17v0zM188.5 124q-17.5 0 -30 -12.5t-12.5 -30t12.5 -29.5t30 -12t30 12t12.5 29.5t-12.5 30t-30 12.5zM188.5 68q-5.5 0 -9.5 4t-4 10
t4 10t9.5 4t10 -4t4.5 -10t-4.5 -10t-10 -4z" />
    <glyph glyph-name="lianjie" unicode="&#xe619;" 
d="M550 357q-5 6 -13 6t-14 -5.5t-6 -14t6 -13.5l19 -19q32 -32 32 -77t-32 -77l-183 -182q-32 -32 -77 -32t-77 32l-18 18q-32 32 -32 77t32 77l149 149q5 6 5 14t-5.5 14t-13.5 6t-14 -6l-149 -149q-43 -44 -43 -105t43 -104l19 -19q43 -43 104 -43t105 43l182 183
q44 43 44 104t-44 104zM865 634l-19 19q-43 43 -104.5 43t-104.5 -43l-182 -183q-44 -43 -44 -104t44 -104l19 -19q5 -6 13 -6t14 5.5t6 14t-6 13.5l-19 19q-32 32 -32 77t32 77l183 182q32 32 77 32t77 -32l18 -18q32 -32 32 -77t-32 -77l-149 -149q-5 -6 -5 -14t5.5 -14
t13.5 -6t14 6l149 149q43 43 43 104.5t-43 104.5z" />
    <glyph glyph-name="send" unicode="&#xe603;" 
d="M120 400l173 -109l-1 -276l214 139l203 -118l193 632zM182 393l656 232l-536 -305zM317 296l414 243l-343 -289l-75 -160zM317 58l82 160l82 -51l-164 -109v0zM696 74l-286 166l460 396z" />
    <glyph glyph-name="feedback3" unicode="&#xe621;" horiz-adv-x="1399" 
d="M1084 60v148v133v53q0 13 -9.5 22.5t-22.5 9.5t-22.5 -9.5t-9.5 -22.5v-59v-135v-148v-97v-15q-1 -4 -2 -7l-4 -6t-5 -5l-6 -4q-4 -1 -7 -2h-14h-30h-108h-145h-151h-126h-72h-10q-4 1 -7 2l-6 4t-5 5l-4 6q-1 3 -2 7v14v30v108v144v151v127v71v11q1 3 2 7l4 6l5 5
q3 2 6 3q4 2 7 2q2 1 18 1h41h133h149h101h13q13 0 22.5 9t9.5 22.5t-9.5 22.5t-22.5 9h-59h-135h-148h-98q-24 0 -37 -3q-29 -9 -47.5 -34t-18.5 -55v-51v-115v-147v-150v-120v-62q0 -44 31 -70q27 -24 61 -24h4h65h123h149h147h112h48q30 0 52 17q18 13 27 28t12 38
q1 5 1 23v102zM1122 690l-32 32q-20 20 -46 24q-11 2 -18 2t-19 -2q-13 -3 -27 -11q-9 -6 -38 -35l-28 -28q-17 -17 -5 -39q3 -4 6 -7q11 -9 31 -31q20 -21 30 -30l24.5 -24.5l26.5 -26.5v0q3 -3 6 -5q22 -12 39 5q17 16 33 33l7.5 7.5t8.5 7.5q18 19 24 42t0 46t-23 40z
M1084 624q-1 -4 -2 -7t-3 -6l-8 -8l-17 -17l-4 -4q-8 9 -19 18l-19 19q-15 16 -30 31q2 2 4 3q6 7 17 18l8 8q3 2 6 3t7 2h7l6 -2t6 -3q0 -1 16 -16l18 -18l2 -2q2 -3 3 -6l2 -6v-7zM789 548q-39 -40 -79 -79q-43 -44 -87 -89q-10 -10 -31 -30t-30 -31q-2 -2 -10 -9
q-4 -4 -10 -19l-6 -15q-25 -61 -45 -108q-16 -39 -27 -64q-2 -9 0 -17q3 -8 9 -14t14 -9q8 -2 17 0q35 15 70 29q11 5 48.5 20t57.5 24l16 6l0.5 0.5l0.5 0.5q4 1 7 2v1q1 0 2 1q1 0 1 0.5t0.5 0.5t1 0.5l0.5 0.5q1 1 1 2q5 3 7 6t7 7t7 7t7 7t7 7q12 12 38 38.5t41 40.5
l88 88q10 10 30 31t31 30l9 9q9 10 9 23t-9 23l-62 62q-26 25 -51 51q-9 9 -22.5 9t-22.5 -9q-18 -17 -35 -34zM609 176q-51 -21 -55 -22q0 1 1 3q9 23 31 74q35 -35 45 -46q-2 -1 -22 -9zM846 514l40 -40q3 -5 9 -9t10.5 -9.5t8.5 -9.5q-9 -10 -12 -12q-69 -70 -78 -79
l-88 -88q-17 -16 -48 -48q-31 32 -54 54q-9 10 -14 14l12 12q39 40 79 79q44 44 87 88z" />
    <glyph glyph-name="iosatoutline" unicode="&#xe61a;" 
d="M831 193q-23 -34 -55 -63q-32 -30 -70 -51q-38 -22 -81 -34t-89 -12q-70 0 -134 22q-63 22 -111 66q-51 47 -83 121q-24 55 -24 146q0 72 29 140q27 62 74 108q46 46 110 74q58 24 139 24q66 0 124 -21q56 -20 97 -58q31 -28 58 -89q20 -45 20 -105q0 -55 -19 -103
q-19 -46 -41 -74q-32 -37 -54 -50q-37 -22 -61 -22q-17 0 -23.5 6t-7.5 16q-2 13 3 30q3 14 14 41l112 300h-53l-18 -49q-18 29 -47 46q-44 26 -92 26q-60 0 -109 -31q-50 -30 -83 -77q-22 -30 -38 -78l-2 -5q-19 -55 -19 -107q0 -33 12 -63.5t33 -52.5q20 -22 50 -36
q29 -13 63 -13q37 0 76 14q28 9 52 33q4 -14 15 -25q23 -22 59 -22q37 0 85 27q32 18 69 62q29 35 50 88q22 55 22 119q0 73 -25 128q-33 70 -71 104q-48 43 -113 66t-138 23q-88 0 -154 -27q-72 -30 -126 -81q-55 -53 -86 -124q-33 -76 -33 -162q0 -106 30 -172
q39 -85 98 -136q57 -49 127 -71q71 -23 144 -23q50 0 100 14q52 14 95 38q44 25 83 61q18 17 37.5 41t27.5 38q4 8 8 17h-54zM570 271q-21 -27 -34 -36q-21 -14 -37 -17q-19 -5 -40 -5q-25 0 -45.5 8.5t-35.5 24.5t-24 38q-9 21 -9 47q0 42 16 89q2 7 3 10q9 28 28 59
q22 36 68 66q38 26 84 26q18 0 39 -5q11 -2 26 -11q3 -1 5 -3q18 -10 31 -26q12 -14 18 -36l-60 -170q-14 -36 -33 -59z" />
    <glyph glyph-name="location" unicode="&#xe61b;" 
d="M513 -63q-156 0 -252 26q-55 14 -84 33q-43 28 -43 68q0 48 39 74v0q40 26 123 27v-34q-72 -1 -104 -22q-23 -16 -23 -45q0 -21 27 -39v0q25 -16 73 -29v0q93 -24 244 -24t242 24v0q49 13 73 29h1q26 17 26 39q0 17 -17 34q-16 16 -44 26q-27 10 -65 10v35q44 0 77 -12
q35 -13 57 -35q27 -27 27 -58q0 -41 -43 -68q-29 -19 -83 -33q-96 -26 -251 -26v0zM515 67q-29 0 -48 23v1q-75 100 -147 214q-97 154 -97 241q-1 56 22 109q22 51 62 92q42 42 96.5 64.5t111.5 21.5q57 1 111.5 -21.5t96.5 -64.5q40 -40 62 -91q23 -54 21 -110
q0 -87 -97 -241q-65 -105 -147 -214q-18 -24 -47 -24v0zM495 111q8 -10 20 -10t20 10q80 108 145 212q92 146 92 223v0q1 48 -18 94.5t-55 82.5q-37 37 -85 56.5t-99 18.5v11v-11v12l-1 -12q-50 1 -97.5 -18.5t-85.5 -57.5q-36 -36 -55 -82t-18 -94v0q0 -77 91 -223
q72 -112 146 -212v0zM512 428q-44 0 -75.5 31.5t-31.5 76t31.5 76t75.5 31.5t75.5 -31.5t31.5 -76t-31.5 -76t-75.5 -31.5v0zM512 608q-30 0 -51.5 -21t-21.5 -51t21.5 -51.5t51.5 -21.5t51.5 21.5t21.5 51.5t-21.5 51t-51.5 21v0zM296 131q7 0 12 5t5 12v0q0 7 -5 12t-12 5
v-34zM711 151q0 -7 5 -12t13 -5v35q-8 0 -13 -5.5t-5 -12.5v0v0zM711 151z" />
    <glyph glyph-name="wujieguoyangshi" unicode="&#xe622;" 
d="M956 826h-889q-27 0 -46 -18.5t-19 -45.5v-612q0 -27 19 -46t46 -19h48q5 -15 16 -27q3 -2 7 -4q91 -23 106 -60q2 -8 1 -14t-3 -10l-2 -4q-10 -13 3 -21q12 -9 21 2q20 25 9 56q-17 52 -122 80q-8 8 -8 17v0q0 10 12 18h1l2.5 1.5t4.5 2.5l0.5 0.5t1.5 0.5t4.5 1.5
t4.5 2.5q15 3 31 3q41 0 93 -15q3 -2 8.5 -4.5t8.5 -4.5q1 0 2.5 -1t3.5 -2q12 -7 22 -14q1 0 1.5 -0.5l0.5 -0.5q105 -73 105 -124v0q-3 -5 -1.5 -11t7.5 -9q4 -2 7 -2q10 0 13 8q2 4 3.5 10t-0.5 18.5t-9 27t-25 36t-46 44.5h274q-28 -23 -46 -44t-25 -35.5t-9 -27.5
t-0.5 -19t3.5 -10q5 -8 14 -8q3 0 7 2q6 3 8 9t-1 11q-1 1 -1 2.5t1 7.5t3.5 13t9.5 18t18 23t30 28.5t43 33.5q12 9 25 15q2 3 4 3q9 4 18 9q52 15 93 15q16 0 31 -3q8 -3 10 -4q1 0 1.5 -0.5l0.5 -0.5q2 -1 4.5 -2.5t3.5 -1.5v0q11 -8 11 -18v0q0 -7 -7 -17
q-106 -28 -123 -80q-11 -31 9 -56q4 -6 10.5 -6.5t10.5 4.5q6 4 6.5 10.5t-3.5 10.5q-2 2 -3 4t-3 9.5t1 14.5q12 36 106 60q4 2 7 4q11 12 16 27q27 1 45 19.5t18 45.5v610q1 27 -18 45.5t-46 18.5v0zM167 530h137q19 -62 -7 -137l-2 -4q-8 -22 -11 -36t-0.5 -45.5
t17.5 -68.5q22 -55 -1 -89v0l-2 0.5t-2 1.5q-26 10 -53 13q-3 0 -4 1q-9 1 -23 1h-5q-3 0 -9 -0.5t-8 -0.5q-4 0 -5 -1q-2 0 -3 -1q12 59 -8 89q-14 22 -15 73.5t15 100.5q8 29 -11 103v0zM773 238q14 37 17 68.5t0 46t-11 35.5l-2 4q-27 75 -7 137h137q-21 -72 -10 -104
q15 -49 14.5 -101t-14.5 -73q-20 -31 -8 -89q-1 0 -2 0.5l-1 0.5h-3q-6 1 -21 1h-3q-42 0 -86 -18q-21 39 0 92v0zM990 151q0 -14 -9 -23.5t-23 -10.5q-2 8 -10 17l-2 2q-1 0 -1 1t-2 2t-3 2.5t-2 2.5t-2 1.5l-1 0.5q-3 3 -7 5q-1 0 -2 0.5t-1 1.5h-1v0q-7 19 -8.5 40.5
t7.5 42.5q19 29 20 89.5t-16 111.5q-9 27 13 94h6q6 0 11 5t5 11t-5 10.5t-11 4.5h-17h-170h-14q-6 0 -10.5 -4.5t-4.5 -10.5q0 -10 8 -13q-18 -71 11 -150l2 -5q6 -19 9 -31.5t0.5 -39t-15.5 -58.5q-25 -66 1 -114q-15 -7 -30 -18v0h-357l-1 0.5t-2 1.5q-10 7 -25 15
q-1 1 -2 1.5l-1 0.5q27 47 1 113q-13 32 -15.5 58.5t0.5 39t10 31.5l2 5q27 74 10 150q8 4 8 13q0 6 -4.5 10.5t-10.5 4.5h-14h-170h-17q-6 0 -10.5 -4.5t-4.5 -10.5t4.5 -11t10.5 -5h6q21 -70 13 -94q-17 -50 -16 -111.5t21 -89.5q16 -26 -1 -83q-1 0 -1 -1q-1 -1 -2 -1.5
t-2 -0.5q-1 -1 -3 -2.5t-3 -2.5l-1 -0.5t-2 -1.5q-3 -2 -7 -6l-1 -1l-2 -2q-1 -1 -5 -7v0q-4 -6 -5 -10h-50q-14 0 -24 10t-10 24v611q0 14 10 24t24 10h889q14 0 24 -10t10 -24v-611v0v0zM479 602q0 6 -4.5 10.5t-10.5 4.5q-51 0 -118 49q-8 4 -11 8q-13 7 -22 -5
q-7 -13 5 -22q4 -1 10 -6q73 -54 136 -54q6 0 10.5 4.5t4.5 10.5v0zM700 674q-6 -4 -11 -8q-67 -49 -118 -49q-6 0 -10.5 -4.5t-4.5 -10.5t4.5 -10.5t10.5 -4.5q67 0 137 54q6 5 9 6q5 3 6.5 9.5t-1.5 12.5q-9 12 -22 5v0zM622 254l-104 47q-7 3 -13 0l-92 -47
q-13 -7 -7 -21q7 -12 20 -7l85 43l97 -44q2 -1 6 -1q10 0 15 9q3 7 1 13t-8 8v0z" />
    <glyph glyph-name="comment" unicode="&#xe66a;" 
d="M512 -32v0q-13 0 -23 9l-96 96q-9 10 -9 23t9.5 22.5t22.5 9.5t23 -9l73 -74l73 74q10 9 23 9h224q13 0 22.5 9.5t9.5 22.5v512q0 13 -9.5 22.5t-22.5 9.5h-640q-13 0 -22.5 -9.5t-9.5 -22.5v-512q0 -13 9.5 -22.5t22.5 -9.5h96q13 0 22.5 -9.5t9.5 -22.5t-9.5 -22.5
t-22.5 -9.5h-96q-40 0 -68 28t-28 68v512q0 40 28 68t68 28h640q40 0 68 -28t28 -68v-512q0 -40 -28 -68t-68 -28h-211l-86 -87q-10 -9 -23 -9v0zM336 384q-20 0 -34 14t-14 34t14 34t34 14t34 -14t14 -34t-14 -34t-34 -14zM528 384q-20 0 -34 14t-14 34t14 34t34 14t34 -14
t14 -34t-14 -34t-34 -14zM720 384q-20 0 -34 14t-14 34t14 34t34 14t34 -14t14 -34t-14 -34t-34 -14z" />
    <glyph glyph-name="language" unicode="&#xe645;" 
d="M512 833q-91 0 -174.5 -36t-143.5 -96.5t-96 -143.5t-36 -174.5t36 -174.5t96 -143.5t143.5 -96t174.5 -35.5t174.5 35.5t143.5 96t96 143.5t36 174.5t-36 174.5t-96 143.5t-143.5 96.5t-174.5 36zM822 563h-130q-15 66 -63 162q136 -53 193 -162zM512 743
q62 -94 86 -180h-172q26 90 86 180zM166 293q-14 40 -14 89.5t14 90.5h153q-5 -32 -5 -90q0 -16 2.5 -45.5t2.5 -44.5h-153zM202 203h130q15 -67 63 -162q-136 52 -193 162zM332 563h-130q66 112 193 162q-48 -96 -63 -162zM512 23q-62 93 -86 180h172q-26 -91 -86 -180z
M616 293h-208q-9 63 -9 90t9 90h212q9 -63 9 -90q0 -14 -2.5 -29t-6 -32.5t-4.5 -28.5zM629 41q44 81 63 162h131q-58 -110 -194 -162zM710 293q4 31 4 90q0 15 -2 44.5t-2 45.5h153q14 -41 14 -90.5t-14 -89.5h-153z" />
  </font>
</defs>
</svg>
